<mxfile host="Electron" modified="2023-10-12T20:06:43.229Z" agent="Mozilla/5.0 (X11; Linux x86_64) AppleWebKit/537.36 (KHTML, like Gecko) draw.io/22.0.2 Chrome/114.0.5735.289 Electron/25.8.4 Safari/537.36" etag="lUCvbQg3ttQtnulMOEf2" version="22.0.2" type="device">
  <diagram name="Page-1" id="UjpUVTi0bv8DyGv0PaFO">
    <mxGraphModel dx="1434" dy="838" grid="1" gridSize="10" guides="1" tooltips="1" connect="1" arrows="1" fold="1" page="1" pageScale="1" pageWidth="850" pageHeight="1400" math="0" shadow="0">
      <root>
        <mxCell id="0" />
        <mxCell id="1" parent="0" />
        <mxCell id="BD9wqIizC6qwUtB0tyqI-44" style="rounded=0;orthogonalLoop=1;jettySize=auto;html=1;strokeWidth=2;fillColor=#bac8d3;strokeColor=#23445d;exitX=0.5;exitY=1;exitDx=0;exitDy=0;" parent="1" source="BD9wqIizC6qwUtB0tyqI-4" edge="1">
          <mxGeometry relative="1" as="geometry">
            <mxPoint x="510" y="110" as="sourcePoint" />
            <mxPoint x="410" y="200" as="targetPoint" />
          </mxGeometry>
        </mxCell>
        <mxCell id="BD9wqIizC6qwUtB0tyqI-4" value="OCV YOLO OBJECT DETECTION ACTION" style="rounded=0;whiteSpace=wrap;html=1;strokeWidth=2;fillColor=#bac8d3;strokeColor=#23445d;" parent="1" vertex="1">
          <mxGeometry x="310" y="70" width="200" height="80" as="geometry" />
        </mxCell>
        <mxCell id="BD9wqIizC6qwUtB0tyqI-5" value="CAFFE GOOGLENET DETECTION ACTION" style="rounded=0;whiteSpace=wrap;html=1;strokeWidth=2;fillColor=#dae8fc;strokeColor=#6c8ebf;" parent="1" vertex="1">
          <mxGeometry x="310" y="220" width="200" height="80" as="geometry" />
        </mxCell>
        <mxCell id="BD9wqIizC6qwUtB0tyqI-6" value="TENSORFLOW VEHICLE COLOR DETECTION ACTION" style="rounded=0;whiteSpace=wrap;html=1;strokeWidth=2;fillColor=#fff2cc;strokeColor=#d6b656;" parent="1" vertex="1">
          <mxGeometry x="310" y="400" width="200" height="80" as="geometry" />
        </mxCell>
        <mxCell id="BD9wqIizC6qwUtB0tyqI-7" value="OALPR LICENSE PLATE DETECTION ACTION" style="rounded=0;whiteSpace=wrap;html=1;strokeWidth=2;fillColor=#e1d5e7;strokeColor=#9673a6;" parent="1" vertex="1">
          <mxGeometry x="310" y="550" width="200" height="80" as="geometry" />
        </mxCell>
        <mxCell id="BD9wqIizC6qwUtB0tyqI-10" value="(No TRIGGER)" style="rounded=1;whiteSpace=wrap;html=1;fillColor=#f5f5f5;fontColor=#333333;strokeColor=#666666;" parent="1" vertex="1">
          <mxGeometry x="320" y="40" width="180" height="40" as="geometry" />
        </mxCell>
        <mxCell id="BD9wqIizC6qwUtB0tyqI-11" style="edgeStyle=orthogonalEdgeStyle;rounded=0;orthogonalLoop=1;jettySize=auto;html=1;exitX=0.5;exitY=1;exitDx=0;exitDy=0;fillColor=#d5e8d4;strokeColor=#82b366;" parent="1" source="BD9wqIizC6qwUtB0tyqI-10" target="BD9wqIizC6qwUtB0tyqI-10" edge="1">
          <mxGeometry relative="1" as="geometry" />
        </mxCell>
        <mxCell id="BD9wqIizC6qwUtB0tyqI-39" value="1" style="text;html=1;align=center;verticalAlign=middle;resizable=0;points=[];autosize=1;strokeColor=none;fillColor=none;" parent="1" vertex="1">
          <mxGeometry x="310" y="120" width="30" height="30" as="geometry" />
        </mxCell>
        <mxCell id="BD9wqIizC6qwUtB0tyqI-40" value="2" style="text;html=1;align=center;verticalAlign=middle;resizable=0;points=[];autosize=1;strokeColor=none;fillColor=none;" parent="1" vertex="1">
          <mxGeometry x="310" y="270" width="30" height="30" as="geometry" />
        </mxCell>
        <mxCell id="BD9wqIizC6qwUtB0tyqI-41" value="3" style="text;html=1;align=center;verticalAlign=middle;resizable=0;points=[];autosize=1;strokeColor=none;fillColor=none;" parent="1" vertex="1">
          <mxGeometry x="310" y="450" width="30" height="30" as="geometry" />
        </mxCell>
        <mxCell id="BD9wqIizC6qwUtB0tyqI-42" value="4" style="text;html=1;align=center;verticalAlign=middle;resizable=0;points=[];autosize=1;strokeColor=none;fillColor=none;" parent="1" vertex="1">
          <mxGeometry x="310" y="600" width="30" height="30" as="geometry" />
        </mxCell>
        <mxCell id="JOvgn_R1egem68Y_tBXg-4" value="CLASSIFICATION=truck" style="rounded=1;whiteSpace=wrap;html=1;fillColor=#fad7ac;strokeColor=#b46504;" parent="1" vertex="1">
          <mxGeometry x="320" y="200" width="180" height="40" as="geometry" />
        </mxCell>
        <mxCell id="JOvgn_R1egem68Y_tBXg-5" value="&lt;div style=&quot;font-size: 12px;&quot;&gt;CLASSIFICATION=ice cream,&lt;/div&gt;&lt;div style=&quot;font-size: 12px;&quot;&gt;icecream;ice lolly, lolly,&lt;br style=&quot;font-size: 12px;&quot;&gt;lollipop, popsicle&lt;/div&gt;" style="rounded=1;whiteSpace=wrap;html=1;fillColor=#fad7ac;strokeColor=#b46504;fontSize=12;" parent="1" vertex="1">
          <mxGeometry x="320" y="350" width="180" height="71.67" as="geometry" />
        </mxCell>
        <mxCell id="JOvgn_R1egem68Y_tBXg-6" style="rounded=0;orthogonalLoop=1;jettySize=auto;html=1;strokeWidth=2;fillColor=#dae8fc;strokeColor=#6c8ebf;entryX=0.5;entryY=0;entryDx=0;entryDy=0;exitX=0.5;exitY=1;exitDx=0;exitDy=0;" parent="1" source="BD9wqIizC6qwUtB0tyqI-5" target="JOvgn_R1egem68Y_tBXg-5" edge="1">
          <mxGeometry relative="1" as="geometry">
            <mxPoint x="420" y="160" as="sourcePoint" />
            <mxPoint x="420" y="210" as="targetPoint" />
          </mxGeometry>
        </mxCell>
        <mxCell id="JOvgn_R1egem68Y_tBXg-8" style="rounded=0;orthogonalLoop=1;jettySize=auto;html=1;strokeWidth=2;fillColor=#fff2cc;strokeColor=#d6b656;entryX=0.5;entryY=0;entryDx=0;entryDy=0;exitX=0.5;exitY=1;exitDx=0;exitDy=0;" parent="1" source="BD9wqIizC6qwUtB0tyqI-6" target="JOvgn_R1egem68Y_tBXg-9" edge="1">
          <mxGeometry relative="1" as="geometry">
            <mxPoint x="420" y="310" as="sourcePoint" />
            <mxPoint x="420" y="360" as="targetPoint" />
          </mxGeometry>
        </mxCell>
        <mxCell id="JOvgn_R1egem68Y_tBXg-9" value="CLASSIFICATION=blue" style="rounded=1;whiteSpace=wrap;html=1;fillColor=#fad7ac;strokeColor=#b46504;" parent="1" vertex="1">
          <mxGeometry x="320" y="530" width="180" height="40" as="geometry" />
        </mxCell>
      </root>
    </mxGraphModel>
  </diagram>
</mxfile>
